<mxfile host="app.diagrams.net" modified="2023-05-25T21:33:51.433Z" agent="Mozilla/5.0 (Windows NT 10.0; Win64; x64) AppleWebKit/537.36 (KHTML, like Gecko) Chrome/113.0.0.0 Safari/537.36" etag="CHf6DD9EfMfy6SVtYnIf" version="21.3.3" type="github">
  <diagram name="Sida-1" id="zkyceq_zcYwxOc8yLfsI">
    <mxGraphModel dx="834" dy="810" grid="1" gridSize="10" guides="1" tooltips="1" connect="1" arrows="1" fold="1" page="1" pageScale="1" pageWidth="827" pageHeight="1169" math="0" shadow="0">
      <root>
        <mxCell id="0" />
        <mxCell id="1" parent="0" />
      </root>
    </mxGraphModel>
  </diagram>
</mxfile>
